<svg width="58" height="58" viewBox="0 0 58 58" fill="none" xmlns="http://www.w3.org/2000/svg">
<g id="navigation 1" filter="url(#filter0_d_140_2537)">
<g id="Navigation">
<path id="Vector" d="M39.4887 15.5884L30.5512 35.0884C30.4764 35.2517 30.3496 35.3857 30.1906 35.4693C30.0315 35.5529 29.8493 35.5815 29.6724 35.5505C29.4954 35.5195 29.3337 35.4308 29.2125 35.2981C29.0914 35.1655 29.0176 34.9964 29.0027 34.8174L28.2471 25.7526L19.1822 24.997C19.0032 24.9821 18.8342 24.9083 18.7015 24.7871C18.5689 24.666 18.4801 24.5043 18.4492 24.3273C18.4182 24.1504 18.4468 23.9681 18.5304 23.8091C18.614 23.6501 18.7479 23.5233 18.9113 23.4485L38.4113 14.511C38.562 14.4419 38.7303 14.4206 38.8935 14.4499C39.0567 14.4793 39.2071 14.5579 39.3243 14.6751C39.4416 14.7924 39.5201 14.9427 39.5495 15.1059C39.5788 15.2691 39.5575 15.4374 39.4884 15.5881L39.4887 15.5884Z" fill="white"/>
</g>
</g>
<defs>
<filter id="filter0_d_140_2537" x="-1.6" y="-1.6" width="61.2" height="61.2" filterUnits="userSpaceOnUse" color-interpolation-filters="sRGB">
<feFlood flood-opacity="0" result="BackgroundImageFix"/>
<feColorMatrix in="SourceAlpha" type="matrix" values="0 0 0 0 0 0 0 0 0 0 0 0 0 0 0 0 0 0 127 0" result="hardAlpha"/>
<feOffset dy="4"/>
<feGaussianBlur stdDeviation="8.8"/>
<feComposite in2="hardAlpha" operator="out"/>
<feColorMatrix type="matrix" values="0 0 0 0 0 0 0 0 0 0 0 0 0 0 0 0 0 0 0.25 0"/>
<feBlend mode="normal" in2="BackgroundImageFix" result="effect1_dropShadow_140_2537"/>
<feBlend mode="normal" in="SourceGraphic" in2="effect1_dropShadow_140_2537" result="shape"/>
</filter>
</defs>
</svg>
